<svg xmlns="http://www.w3.org/2000/svg" xmlns:xlink="http://www.w3.org/1999/xlink" width="145.919" height="232.288" viewBox="0 0 145.919 232.288">
  <defs>
    <clipPath id="clip-path">
      <rect id="Rectangle_2004" data-name="Rectangle 2004" width="145.919" height="227.646" fill="#fc8713"/>
    </clipPath>
    <clipPath id="clip-path-2">
      <rect id="Rectangle_2005" data-name="Rectangle 2005" width="75.244" height="228.384" fill="#139d13"/>
    </clipPath>
  </defs>
  <g id="Group_5984" data-name="Group 5984" transform="translate(-902.779 -4259.833)">
    <g id="Group_1676" data-name="Group 1676" transform="translate(902.779 4259.833)">
      <g id="Group_1675" data-name="Group 1675" transform="translate(0)" clip-path="url(#clip-path)">
        <path id="Path_37908" data-name="Path 37908" d="M89.042,102.392C87.7,89.825,78.82,78.9,65.285,73.181,46.72,65.33,24.652,69.244,6.255,83.652l-.341.267.225.37c1.052,1.741,2,3.321,2.859,4.755,8.405,14.02,8.566,14.287,15.457,11.065A64.776,64.776,0,0,1,35.631,95.9c8.926-2.445,16.644-.706,20.645,4.651,3.367,4.509,3.339,10.73-.076,16.235-3.495,5.638-8.4,8.894-13.145,12.042-4.408,2.926-8.965,5.951-12.315,10.849-3.2,4.68-2.709,8.9-1.52,19.094.264,2.257.562,4.818.864,7.75l.044.424.426.015c3.518.116,6.53.177,9.106.177,8.5,0,12.257-.667,13.787-2.226,1.115-1.136,1.036-2.655.944-4.414-.2-3.8-.495-9.542,10.828-17.507,16.889-11.871,25.35-26.288,23.823-40.6" transform="translate(-0.141 -1.647)" fill="#fc8713"/>
        <path id="Path_37909" data-name="Path 37909" d="M28.452,139.265l-.8-.558-.1.143c-4.127,6.037-3.5,11.4-2.257,22.08.262,2.241.557,4.783.858,7.7l.437,4.237,4.257.142c3.524.116,6.563.179,9.2.179,10.37,0,14.458-.979,16.974-3.542a7.436,7.436,0,0,0,1.954-3.5l-.947-.236a6.481,6.481,0,0,1-1.7,3.048c-2.918,2.974-8.389,3.636-25.443,3.071l-3.406-.113-.349-3.389c-.3-2.917-.6-5.462-.86-7.709-1.217-10.439-1.827-15.679,2.093-21.414Z" transform="translate(-0.58 -3.302)" fill="#fc8713"/>
        <path id="Path_37910" data-name="Path 37910" d="M56.144,110.475a10.787,10.787,0,0,0,.109-1.523,9.421,9.421,0,0,0-1.109-4.5C53.355,101.1,49.566,99.1,44.75,98.938c-.683-.021-1.387-.009-2.11.041l.067.974a19.374,19.374,0,0,1,2.01-.039c4.459.146,7.945,1.967,9.567,5a8.457,8.457,0,0,1,.993,4.041,9.858,9.858,0,0,1-.1,1.385Z" transform="translate(-1.015 -2.355)" fill="#fc8713"/>
        <path id="Path_37911" data-name="Path 37911" d="M19.128,106.106c.1,0,.193,0,.289,0a10.374,10.374,0,0,0,3.712-.754l-.341-.915a9.189,9.189,0,0,1-3.629.687c-4.7-.155-6.849-3.741-13.231-14.388-.858-1.432-1.8-3.01-2.855-4.748l-1.79-2.962L4.007,80.9a71.031,71.031,0,0,1,26.7-13.363l-.234-.947A71.983,71.983,0,0,0,3.406,80.131L0,82.8l2.238,3.7c1.049,1.736,2,3.314,2.853,4.745,6.586,10.987,8.805,14.689,14.036,14.862" transform="translate(0 -1.585)" fill="#fc8713"/>
        <path id="Path_37912" data-name="Path 37912" d="M93.9,100.293a34.2,34.2,0,0,1,.568,6.195c0,9.873-4.366,19.864-12.629,28.892l.719.66c8.43-9.211,12.886-19.431,12.886-29.552a35.193,35.193,0,0,0-.585-6.373Z" transform="translate(-1.948 -2.383)" fill="#fc8713"/>
        <path id="Path_37913" data-name="Path 37913" d="M48.954,183.44a17.964,17.964,0,0,0-17.429-.6c-4.777,2.552-7.514,7.161-7.706,12.979-.352,10.659,7.756,15.786,15.439,16.041.2.007.407.01.612.01,7.559,0,15.607-4.615,15.95-14.992.191-5.793-2.247-10.566-6.867-13.441" transform="translate(-0.567 -4.306)" fill="#fc8713"/>
        <path id="Path_37914" data-name="Path 37914" d="M20.284,196.679q0-.384.013-.774a20.487,20.487,0,0,1,1.22-6.455l-.916-.34a21.49,21.49,0,0,0-1.28,6.762c-.01.269-.014.54-.014.806,0,12.552,9.909,19.447,19.7,19.771l.093,0-.062-.979c-9.32-.309-18.755-6.863-18.755-18.795" transform="translate(-0.46 -4.502)" fill="#fc8713"/>
        <path id="Path_37915" data-name="Path 37915" d="M57.719,205.933l.855.471A20.436,20.436,0,0,0,61,197.13c.009-.268.013-.534.013-.8a19.366,19.366,0,0,0-3.215-11.05l-.81.545a18.405,18.405,0,0,1,3.049,10.5c0,.254,0,.511-.012.767a19.489,19.489,0,0,1-2.307,8.836" transform="translate(-1.357 -4.411)" fill="#fc8713"/>
        <path id="Path_37916" data-name="Path 37916" d="M99.8,57.827a6.641,6.641,0,1,0,6.641,6.641A6.641,6.641,0,0,0,99.8,57.827" transform="translate(-2.218 -1.377)" fill="#fc8713"/>
        <path id="Path_37917" data-name="Path 37917" d="M104.43,26.835a2.952,2.952,0,1,0,2.952,2.952,2.952,2.952,0,0,0-2.952-2.952" transform="translate(-2.416 -0.639)" fill="#fc8713"/>
        <path id="Path_37918" data-name="Path 37918" d="M127.107,0a2.952,2.952,0,1,0,2.952,2.952A2.952,2.952,0,0,0,127.107,0" transform="translate(-2.956)" fill="#fc8713"/>
        <path id="Path_37919" data-name="Path 37919" d="M146.189,49.134a3.136,3.136,0,1,0,3.137,3.137,3.137,3.137,0,0,0-3.137-3.137" transform="translate(-3.406 -1.17)" fill="#fc8713"/>
        <path id="Path_37920" data-name="Path 37920" d="M11.665,182.552a2.029,2.029,0,1,0,2.03,2.029,2.03,2.03,0,0,0-2.03-2.029" transform="translate(-0.229 -4.346)" fill="#fc8713"/>
        <path id="Path_37921" data-name="Path 37921" d="M59.809,225.26a3.874,3.874,0,1,0,3.874,3.875,3.875,3.875,0,0,0-3.874-3.875" transform="translate(-1.332 -5.363)" fill="#fc8713"/>
        <path id="Path_37922" data-name="Path 37922" d="M19.548,58.376a4.243,4.243,0,1,0-4.243-4.243,4.243,4.243,0,0,0,4.243,4.243" transform="translate(-0.364 -1.188)" fill="#fc8713"/>
        <path id="Path_37923" data-name="Path 37923" d="M41.145,29.76a2.03,2.03,0,1,0-2.03-2.03,2.03,2.03,0,0,0,2.03,2.03" transform="translate(-0.931 -0.612)" fill="#fc8713"/>
      </g>
    </g>
    <g id="Group_1678" data-name="Group 1678" transform="translate(954.327 4263.737)">
      <g id="Group_1677" data-name="Group 1677" transform="translate(8)" clip-path="url(#clip-path-2)">
        <path id="Path_37924" data-name="Path 37924" d="M44.988,197.734c.264-7.972-5.933-12.351-12.191-12.559-6.036-.19-12.644,3.386-12.92,11.728a11.488,11.488,0,0,0,5.378,10.6,14.052,14.052,0,0,0,13.64.434,11.48,11.48,0,0,0,6.092-10.208" transform="translate(-0.473 -4.408)" fill="#139d13"/>
        <path id="Path_37925" data-name="Path 37925" d="M70.829,124.215c-1.047-9.816-7.98-18.343-18.546-22.811C37.8,95.28,20.6,98.329,6.255,109.562l-.341.267.224.37c.819,1.353,1.557,2.584,2.225,3.7,6.46,10.776,6.712,11.2,12.163,8.65a50.232,50.232,0,0,1,8.675-3.271c6.9-1.89,12.86-.551,15.945,3.579,2.593,3.471,2.568,8.264-.063,12.508-2.707,4.365-6.513,6.891-10.194,9.334-3.437,2.281-6.991,4.641-9.609,8.468-2.513,3.675-2.128,6.97-1.2,14.929.205,1.755.437,3.746.672,6.027l.044.424.426.014c2.721.09,5.053.138,7.052.138,6.671,0,9.624-.528,10.837-1.764.9-.918.839-2.122.766-3.515-.152-2.932-.382-7.363,8.377-13.525,13.171-9.257,19.769-20.509,18.577-31.678" transform="translate(-0.141 -2.34)" fill="#139d13"/>
        <path id="Path_37926" data-name="Path 37926" d="M48.487,170.353a10.887,10.887,0,0,1,.011-1.843l-.969-.11a11.836,11.836,0,0,0-.017,2.005c.09,1.728.213,4.1-1.739,6.086-2.509,2.557-6.711,3.1-20.44,2.647l-3.406-.112-.349-3.388c-.226-2.193-.45-4.114-.648-5.814l-.02-.17c-.972-8.337-1.46-12.521,1.774-17.251a25.38,25.38,0,0,1,4-4.537l-.654-.724a26.259,26.259,0,0,0-4.156,4.711c-3.441,5.031-2.939,9.336-1.938,17.914l.02.17c.2,1.7.421,3.614.646,5.8l.436,4.235,4.257.142c1.213.04,2.343.07,3.417.094-6.738,1.271-13.028,6.281-13.338,15.644-.008.227-.012.451-.012.673,0,10.447,8.236,16.186,16.373,16.455l.032-.976c-7.667-.254-15.429-5.651-15.429-15.479,0-.212,0-.425.011-.64.351-10.6,8.869-15.272,16.448-15.028a16.075,16.075,0,0,1,13.6,7.774l.851-.479a16.666,16.666,0,0,0-11.538-7.945c6.16-.2,8.848-1.088,10.755-3.031,2.252-2.295,2.111-5.019,2.017-6.822" transform="translate(-0.366 -3.503)" fill="#139d13"/>
        <path id="Path_37927" data-name="Path 37927" d="M44.247,130.884a7.789,7.789,0,0,0,.157-1.527,6.5,6.5,0,0,0-.759-3.1c-1.145-2.139-3.568-3.52-6.649-3.789l-.085.972c2.746.24,4.887,1.435,5.873,3.276a5.53,5.53,0,0,1,.643,2.636,6.745,6.745,0,0,1-.139,1.334Z" transform="translate(-0.879 -2.916)" fill="#139d13"/>
        <path id="Path_37928" data-name="Path 37928" d="M16.527,128.153a13.377,13.377,0,0,0,5.72-1.724c.74-.347,1.55-.724,2.481-1.118l-.38-.9c-.945.4-1.766.783-2.521,1.136-1.94.907-3.618,1.714-5.527,1.625-4.127-.137-6-3.261-11.008-11.614-.667-1.113-1.4-2.339-2.219-3.691l-1.79-2.961,2.724-2.133A54.582,54.582,0,0,1,31.251,95.11l-.11-.97A55.548,55.548,0,0,0,3.406,106.006L0,108.673l2.238,3.7c.816,1.35,1.551,2.576,2.217,3.686C9.661,124.746,11.61,128,16.268,128.149c.087,0,.173,0,.259,0" transform="translate(0 -2.241)" fill="#139d13"/>
        <path id="Path_37929" data-name="Path 37929" d="M76.363,122.122l-.959.182a27.589,27.589,0,0,1,.483,5.12c0,7.017-2.634,13.893-7.829,20.44l.764.606c5.335-6.722,8.041-13.8,8.041-21.046a28.529,28.529,0,0,0-.5-5.3" transform="translate(-1.62 -2.907)" fill="#139d13"/>
        <path id="Path_37930" data-name="Path 37930" d="M62.92,80.36a2.952,2.952,0,1,0-2.952-2.952A2.952,2.952,0,0,0,62.92,80.36" transform="translate(-1.428 -1.773)" fill="#139d13"/>
        <path id="Path_37931" data-name="Path 37931" d="M13,8.117A4.059,4.059,0,1,0,8.946,4.059,4.059,4.059,0,0,0,13,8.117" transform="translate(-0.213)" fill="#139d13"/>
        <path id="Path_37932" data-name="Path 37932" d="M20.442,46.048a1.292,1.292,0,1,0-1.292-1.292,1.291,1.291,0,0,0,1.292,1.292" transform="translate(-0.456 -1.035)" fill="#139d13"/>
        <path id="Path_37933" data-name="Path 37933" d="M61.576,167.811a3.874,3.874,0,1,0,3.875,3.874,3.874,3.874,0,0,0-3.875-3.874" transform="translate(-1.374 -3.995)" fill="#139d13"/>
        <path id="Path_37934" data-name="Path 37934" d="M59.942,198.8a1.107,1.107,0,1,0,1.107,1.107,1.107,1.107,0,0,0-1.107-1.107" transform="translate(-1.401 -4.733)" fill="#139d13"/>
        <path id="Path_37935" data-name="Path 37935" d="M74.682,218.457a1.107,1.107,0,1,0,1.107,1.107,1.107,1.107,0,0,0-1.107-1.107" transform="translate(-1.752 -5.201)" fill="#139d13"/>
        <path id="Path_37936" data-name="Path 37936" d="M44.208,227.528a3.136,3.136,0,1,0,3.137,3.136,3.136,3.136,0,0,0-3.137-3.136" transform="translate(-0.978 -5.417)" fill="#139d13"/>
      </g>
    </g>
  </g>
</svg>
